<svg xmlns="http://www.w3.org/2000/svg" viewBox="0 0 100 100"><path d="M77.3 36.3C77.4 35.9 77.9 34.7 78.2 33.8C78.4 33 78.6 32.2 78.8 31.4C78.9 30.5 79.1 29.7 79.1 28.9C79.2 28 79.2 27.2 79.1 26.3C79 25.5 78.9 24.6 78.6 23.8C78.3 23 77.9 22.2 77.4 21.6C76.9 20.9 76.2 20.2 75.4 19.8C74.7 19.4 73.8 19.1 72.9 18.9C72.1 18.8 71.1 18.9 70.3 19C69.4 19.2 68.5 19.5 67.7 19.9C66.9 20.3 66.2 20.7 65.5 21.3C64.8 21.8 64.1 22.4 63.5 23C62.8 23.6 62.3 24.3 61.7 25C61.2 25.7 60.7 26.5 60.3 27.2C59.9 28 59.5 28.8 59.2 29.7C58.9 30.5 58.6 31.4 58.5 32.2C58.3 33.1 58.3 34 58.3 34.9C58.3 35.8 58.4 36.7 58.6 37.5C58.8 38.3 59.1 39.2 59.5 39.9C59.9 40.7 60.4 41.4 60.9 42C61.5 42.6 62.2 43.1 62.9 43.4C63.6 43.8 64.4 44 65.2 44.1C66 44.3 66.8 44.2 67.7 44.1C68.5 44 69.3 43.7 70.1 43.4C70.9 43.1 71.7 42.7 72.4 42.3C73.1 41.8 73.8 41.2 74.5 40.6C75.1 40.1 75.7 39.4 76.2 38.7C76.8 38 77.4 36.9 77.7 36.5Z" fill="#F1C6D9" fill-rule="evenodd"/><path d="M35.9 90C35.8 89.6 35.4 88.5 35.5 87.6C35.6 86.8 36 85.9 36.3 85C36.5 84.2 36.9 83.4 37.2 82.6C37.6 81.7 38 80.9 38.3 80.1C38.7 79.3 39.1 78.6 39.6 77.8C40 77 40.4 76.2 40.8 75.4C41.2 74.7 41.6 73.9 42.1 73.1C42.5 72.3 42.9 71.5 43.3 70.8C43.7 70 44.1 69.2 44.5 68.4C44.9 67.6 45.3 66.8 45.7 66C46.1 65.2 46.4 64.4 46.9 63.7C47.3 62.9 47.7 62.1 48.1 61.3C48.5 60.5 49 59.8 49.4 59C49.9 58.3 50.3 57.5 50.8 56.8C51.3 56 51.7 55.3 52.2 54.5C52.7 53.8 53.2 53 53.6 52.3C54.1 51.6 54.6 50.8 55.1 50.1C55.6 49.4 56.1 48.6 56.6 47.9C57.1 47.2 57.6 46.5 58.2 45.9C58.7 45.3 59.6 44.3 59.9 44.4C60.2 44.5 60.1 45.6 60 46.4C59.9 47.1 59.5 48 59.2 48.8C58.9 49.6 58.6 50.4 58.2 51.2C57.9 52 57.5 52.8 57.1 53.6C56.7 54.4 56.3 55.2 55.9 56C55.5 56.8 55.1 57.5 54.7 58.3C54.3 59.1 53.9 59.9 53.5 60.7C53.1 61.5 52.7 62.3 52.3 63C51.9 63.8 51.5 64.6 51.1 65.4C50.7 66.2 50.2 66.9 49.8 67.7C49.4 68.5 48.9 69.2 48.5 70C48 70.7 47.6 71.5 47.1 72.2C46.7 73 46.2 73.7 45.7 74.5C45.3 75.2 44.8 76 44.3 76.7C43.9 77.5 43.4 78.2 43 79C42.5 79.7 42 80.5 41.6 81.2C41.1 81.9 40.7 82.7 40.2 83.4C39.8 84.2 39.3 84.9 38.8 85.6C38.3 86.3 37.7 87 37.3 87.5C36.9 88.1 36.5 88.9 36.4 88.9C36.4 88.8 36.8 87.7 36.9 87.4" fill="none" stroke="#26241F" stroke-width="1.99" stroke-linecap="round" stroke-linejoin="round"/><path d="M59.1 25.7C59.4 25.3 60.1 24.2 60.5 23.5C61 22.8 61.5 22.1 62.1 21.4C62.6 20.8 63.2 20.1 63.9 19.5C64.6 18.9 65.3 18.4 66.2 18C67 17.6 67.9 17.3 68.8 17.2C69.7 17.1 70.6 17.2 71.5 17.4C72.3 17.7 73.2 18.1 73.9 18.6C74.6 19.1 75.1 19.7 75.6 20.4C76.1 21.1 76.5 21.8 76.8 22.6C77.1 23.3 77.3 24.2 77.4 25C77.5 25.8 77.6 26.6 77.5 27.4C77.4 28.3 77.2 29.1 77 29.9C76.8 30.7 76.4 31.4 76.1 32.2C75.7 32.9 75.3 33.6 74.9 34.3C74.5 35 74 35.6 73.6 36.3C73.2 37 72.7 37.6 72.3 38.3C71.8 38.9 71.3 39.6 70.8 40.2C70.2 40.7 69.6 41.3 68.9 41.8C68.3 42.2 67.5 42.6 66.8 42.9C66 43.1 65.2 43.2 64.4 43.2C63.6 43.2 62.8 43 62.1 42.7C61.4 42.5 60.8 42.1 60.2 41.6C59.6 41.1 59.1 40.5 58.7 39.9C58.3 39.2 57.9 38.5 57.7 37.8C57.5 37 57.4 36.2 57.4 35.4C57.4 34.6 57.5 33.8 57.7 33C57.9 32.2 58.2 31.5 58.5 30.7C58.9 30 59.3 29.3 59.7 28.7C60.1 28 60.6 27.4 61 26.8C61.5 26.1 62.2 25.1 62.4 24.8" fill="none" stroke="#26241F" stroke-width="2.44" stroke-linecap="round" stroke-linejoin="round"/><path d="M41.1 48.3C41.3 48.2 41.7 47.3 42.2 47.4C42.6 47.5 43.3 48.5 43.9 49.1C44.5 49.7 45 50.4 45.5 51.1C46.1 51.8 46.5 52.5 47 53.2C47.5 54 48 54.7 48.4 55.5C48.9 56.2 49.3 56.9 49.8 57.7C50.3 58.4 50.7 59.2 51.2 59.9C51.7 60.6 52.2 61.4 52.6 62.1C53.1 62.8 53.6 63.6 54 64.3C54.5 65.1 54.9 65.8 55.3 66.6C55.8 67.4 56.2 68.1 56.5 68.9C56.9 69.7 57.3 70.5 57.6 71.3C57.9 72.1 58.3 72.9 58.6 73.8C58.9 74.6 59.2 75.4 59.6 76.2C59.9 77 60.2 77.8 60.6 78.6C60.9 79.4 61.2 80.2 61.5 81C61.9 81.8 62.2 82.6 62.5 83.5C62.7 84.3 63 85.1 63.2 85.9C63.4 86.7 63.6 87.7 63.7 88.3C63.9 89 64.1 89.7 64.1 89.7C64 89.8 63.8 89.1 63.4 88.6C63 88.2 62.4 87.5 61.8 86.9C61.3 86.3 60.7 85.6 60.2 84.9C59.7 84.2 59.1 83.6 58.6 82.9C58.1 82.2 57.6 81.5 57.1 80.7C56.7 80 56.2 79.3 55.8 78.5C55.3 77.8 54.9 77 54.5 76.2C54 75.5 53.6 74.7 53.2 73.9C52.8 73.2 52.4 72.4 52 71.6C51.6 70.9 51.2 70.1 50.8 69.3C50.3 68.6 49.9 67.8 49.5 67C49.2 66.3 48.8 65.5 48.4 64.7C48.1 63.9 47.8 63.1 47.4 62.3C47.1 61.4 46.8 60.6 46.6 59.8C46.3 59 46 58.2 45.7 57.3C45.4 56.5 45.2 55.7 44.9 54.9C44.6 54.1 44.3 53.3 44 52.5C43.7 51.7 43.4 50.8 43.2 50.2C43 49.5 42.6 48.8 42.6 48.5C42.6 48.2 43.2 48.5 43.3 48.5" fill="none" stroke="#26241F" stroke-width="2.06" stroke-linecap="round" stroke-linejoin="round"/><path d="M18.9 21.4C19.1 21.8 19.6 23 20 23.8C20.3 24.6 20.7 25.3 21.1 26.1C21.5 26.9 21.9 27.7 22.3 28.4C22.7 29.2 23.1 30 23.5 30.7C23.9 31.5 24.3 32.3 24.7 33.1C25.1 33.8 25.4 34.6 25.8 35.4C26.2 36.2 26.6 37 27 37.7C27.4 38.5 27.7 39.4 28.3 40.1C28.8 40.7 29.6 41.2 30.3 41.8C31 42.3 31.7 42.8 32.4 43.4C33 43.9 33.7 44.6 34.4 45C35 45.5 35.7 45.9 36.4 46.1C37.2 46.3 38.1 46.3 38.9 46.3C39.7 46.4 40.7 46.6 41.3 46.3C41.9 45.9 42.2 44.8 42.6 44.1C43 43.4 43.7 42.7 43.9 41.9C44.1 41.1 43.8 40.3 43.7 39.4C43.6 38.6 43.5 37.7 43.4 36.8C43.3 36 43.3 35.1 43.2 34.2C43.1 33.3 43 32.4 42.7 31.6C42.4 30.8 41.9 30 41.4 29.3C41 28.5 40.5 27.8 40.1 27C39.6 26.3 39.1 25.6 38.7 24.8C38.2 24.1 37.8 23.4 37.3 22.6C36.9 21.9 36.5 21.1 36.1 20.3C35.7 19.6 35.3 18.8 34.8 18C34.4 17.3 34 16.5 33.6 15.7C33.2 15 32.5 13.9 32.3 13.5" fill="none" stroke="#26241F" stroke-width="2.22" stroke-linecap="round" stroke-linejoin="round"/><path d="M23.6 19C23.8 19.5 24.4 20.7 24.9 21.6C25.3 22.4 25.8 23.3 26.2 24.1C26.6 25 27.1 25.8 27.5 26.6C27.9 27.5 28.4 28.3 28.8 29.2C29.3 30 29.7 30.8 30.2 31.7C30.6 32.5 31 33.4 31.5 34.2C31.9 35.1 32.3 35.9 32.8 36.8C33.2 37.6 33.8 38.9 34 39.3" fill="none" stroke="#26241F" stroke-width="1.96" stroke-linecap="round" stroke-linejoin="round"/><path d="M28.4 16.6C28.6 17.1 29.2 18.3 29.7 19.2C30.1 20 30.6 20.8 31 21.7C31.4 22.5 31.9 23.3 32.3 24.2C32.8 25 33.2 25.8 33.6 26.7C34.1 27.5 34.5 28.3 34.9 29.2C35.4 30 35.8 30.9 36.2 31.7C36.6 32.6 37 33.4 37.5 34.3C37.9 35.1 38.5 36.4 38.7 36.8" fill="none" stroke="#26241F" stroke-width="1.82" stroke-linecap="round" stroke-linejoin="round"/></svg>