<svg xmlns="http://www.w3.org/2000/svg" viewBox="0 0 100 100"><path d="M25.1 23.6C25.5 23.9 26.4 24.8 27.1 25.4C27.7 26 28.4 26.6 29 27.2C29.6 27.9 30.2 28.5 30.8 29.2C31.3 29.8 31.9 30.5 32.5 31.1C33.1 31.8 33.6 32.4 34.2 33.1C34.8 33.7 35.5 34.3 36.1 34.9C36.7 35.5 37.3 36.1 37.9 36.8C38.6 37.4 39.2 38 39.7 38.7C40.3 39.3 40.8 40 41.4 40.7C41.9 41.4 42.4 42.1 42.9 42.9C43.4 43.6 43.9 44.3 44.4 45C44.9 45.7 45.5 46.4 46 47.1C46.6 47.7 47.2 48.4 47.8 49C48.4 49.6 49 50.2 49.6 50.9C50.2 51.5 50.8 52.1 51.4 52.8C52 53.4 52.6 54.1 53.2 54.7C53.7 55.4 54.3 56 54.9 56.7C55.5 57.3 56.1 58 56.7 58.6C57.4 59.2 58 59.7 58.7 60.3C59.4 60.9 60.1 61.4 60.7 62C61.4 62.5 62.1 63.1 62.7 63.7C63.4 64.3 64 64.9 64.6 65.5C65.2 66.2 65.7 66.9 66.3 67.5C66.8 68.2 67.4 68.9 68 69.5C68.5 70.2 69.1 70.8 69.7 71.5C70.3 72.1 70.9 72.7 71.6 73.3C72.2 73.9 72.8 74.6 73.4 75.2C74 75.8 74.8 76.8 75.1 77.1" fill="none" stroke="#E2688C" stroke-width="3.21" stroke-linecap="round" stroke-linejoin="round"/><path d="M76.7 25.9C76.3 26.2 75.4 27.2 74.7 27.8C74.1 28.4 73.4 28.9 72.7 29.5C72 30.1 71.3 30.6 70.6 31.2C69.9 31.7 69.2 32.3 68.6 32.9C67.9 33.5 67.3 34.2 66.7 34.8C66 35.4 65.4 36.1 64.8 36.7C64.2 37.3 63.5 37.9 62.8 38.5C62.2 39.1 61.4 39.6 60.8 40.2C60.1 40.7 59.4 41.3 58.7 41.9C58 42.5 57.4 43.1 56.8 43.8C56.2 44.4 55.6 45.1 55 45.8C54.4 46.4 53.8 47.1 53.2 47.7C52.6 48.4 52 49 51.3 49.6C50.7 50.2 50 50.8 49.3 51.4C48.7 52 48 52.6 47.4 53.2C46.8 53.8 46.2 54.5 45.6 55.2C45 55.8 44.4 56.6 43.8 57.2C43.3 57.9 42.7 58.6 42 59.2C41.4 59.8 40.7 60.4 40.1 61C39.4 61.6 38.7 62.1 38 62.7C37.4 63.3 36.7 63.9 36.1 64.5C35.5 65.2 34.9 65.8 34.3 66.5C33.7 67.1 33.1 67.8 32.4 68.4C31.8 69.1 31.2 69.7 30.5 70.3C29.8 70.8 29.1 71.4 28.4 71.9C27.7 72.5 27 73 26.3 73.6C25.7 74.2 25 74.8 24.4 75.4C23.7 76.1 22.8 77 22.5 77.4" fill="none" stroke="#E2688C" stroke-width="3.21" stroke-linecap="round" stroke-linejoin="round"/></svg>